<svg xmlns="http://www.w3.org/2000/svg" width="140" height="140" viewBox="0 0 100 100"><g fill="none" stroke="#d1553f" stroke-width="2.4" stroke-linecap="round" stroke-linejoin="round"><circle cx="50" cy="50" r="40" fill="none" stroke="currentColor" stroke-width="2.2" pathLength="1"/><line x1="50" y1="10" x2="50" y2="90" stroke="currentColor" stroke-width="1.8" stroke-linecap="round" pathLength="1"/><line x1="39.36127256019178" y1="84.39211360852181" x2="45.86271710674124" y2="63.374710847758486" stroke="currentColor" stroke-width="1.6" stroke-linecap="round" pathLength="1"/><line x1="47.05896375281115" y1="68.22950167350643" x2="45.86271710674124" y2="63.374710847758486" stroke="currentColor" stroke-width="2.4" stroke-linecap="round" pathLength="1"/><line x1="42.13419104585764" y1="66.7060909541576" x2="45.86271710674124" y2="63.374710847758486" stroke="currentColor" stroke-width="2.4" stroke-linecap="round" pathLength="1"/><line x1="23.590534968926598" y1="74.4650803549163" x2="39.7296524879159" y2="59.51419791580078" stroke="currentColor" stroke-width="1.6" stroke-linecap="round" pathLength="1"/><line x1="38.3382370597304" y1="64.31669342399309" x2="39.7296524879159" y2="59.51419791580078" stroke="currentColor" stroke-width="2.4" stroke-linecap="round" pathLength="1"/><line x1="34.834964147318814" y1="60.53499468716272" x2="39.7296524879159" y2="59.51419791580078" stroke="currentColor" stroke-width="2.4" stroke-linecap="round" pathLength="1"/><line x1="14.896192205275497" y1="57.98264857744842" x2="36.34851919094047" y2="53.104363335674385" stroke="currentColor" stroke-width="1.6" stroke-linecap="round" pathLength="1"/><line x1="32.74227032881807" y1="56.567738733236844" x2="36.34851919094047" y2="53.104363335674385" stroke="currentColor" stroke-width="2.4" stroke-linecap="round" pathLength="1"/><line x1="31.599196358694925" y1="51.541055101476424" x2="36.34851919094047" y2="53.104363335674385" stroke="currentColor" stroke-width="2.4" stroke-linecap="round" pathLength="1"/><line x1="15.607886391478182" y1="39.361272560191786" x2="36.625289152241514" y2="45.86271710674125" stroke="currentColor" stroke-width="1.6" stroke-linecap="round" pathLength="1"/><line x1="31.77049832649356" y1="47.05896375281116" x2="36.625289152241514" y2="45.86271710674125" stroke="currentColor" stroke-width="2.4" stroke-linecap="round" pathLength="1"/><line x1="33.29390904584239" y1="42.13419104585765" x2="36.625289152241514" y2="45.86271710674125" stroke="currentColor" stroke-width="2.4" stroke-linecap="round" pathLength="1"/><line x1="28" y1="30" x2="28" y2="58" stroke="currentColor" stroke-width="2.4" stroke-linecap="round" pathLength="1"/><path d="M28,58 C 20,58 18,66 18,72" fill="none" stroke="currentColor" stroke-width="1.8" stroke-linecap="round" stroke-linejoin="round" pathLength="1"/><path d="M28,58 C 36,58 38,66 38,72" fill="none" stroke="currentColor" stroke-width="1.8" stroke-linecap="round" stroke-linejoin="round" pathLength="1"/><line x1="28" y1="58" x2="28" y2="70" stroke="currentColor" stroke-width="2" stroke-linecap="round" pathLength="1"/><polygon points="25.5,70 30.5,70 28,76" fill="none" stroke="currentColor" stroke-width="1.5" stroke-linejoin="round" pathLength="1"/><polygon points="15.5,72 20.5,72 18,78" fill="none" stroke="currentColor" stroke-width="1.4" stroke-linejoin="round" pathLength="1"/><polygon points="35.5,72 40.5,72 38,78" fill="none" stroke="currentColor" stroke-width="1.4" stroke-linejoin="round" pathLength="1"/><line x1="60" y1="34" x2="74" y2="62" stroke="currentColor" stroke-width="2.2" stroke-linecap="round" pathLength="1"/><line x1="74" y1="34" x2="60" y2="62" stroke="currentColor" stroke-width="2.2" stroke-linecap="round" pathLength="1"/></g></svg>