<svg xmlns="http://www.w3.org/2000/svg" width="140" height="140" viewBox="0 0 100 100"><g fill="none" stroke="#d1553f" stroke-width="2.4" stroke-linecap="round" stroke-linejoin="round"><circle cx="50" cy="50" r="40" fill="none" stroke="currentColor" stroke-width="2.2" pathLength="1"/><circle cx="50" cy="50" r="5" fill="none" stroke="currentColor" stroke-width="2" pathLength="1"/><line x1="70" y1="50" x2="90" y2="50" stroke="currentColor" stroke-width="1.6" stroke-linecap="round" pathLength="1"/><circle cx="90.0" cy="50.0" r="3.4" fill="none" stroke="currentColor" stroke-width="1.4" pathLength="1"/><line x1="64.14213562373095" y1="64.14213562373095" x2="78.2842712474619" y2="78.2842712474619" stroke="currentColor" stroke-width="1.6" stroke-linecap="round" pathLength="1"/><polygon points="78.3,72.3 83.5,81.3 73.1,81.3" fill="none" stroke="currentColor" stroke-width="1.4" stroke-linejoin="round" pathLength="1"/><line x1="50" y1="70" x2="50" y2="90" stroke="currentColor" stroke-width="1.6" stroke-linecap="round" pathLength="1"/><circle cx="50.0" cy="90.0" r="3.4" fill="none" stroke="currentColor" stroke-width="1.4" pathLength="1"/><line x1="35.85786437626905" y1="64.14213562373095" x2="21.7157287525381" y2="78.2842712474619" stroke="currentColor" stroke-width="1.6" stroke-linecap="round" pathLength="1"/><polygon points="21.7,72.3 26.9,81.3 16.5,81.3" fill="none" stroke="currentColor" stroke-width="1.4" stroke-linejoin="round" pathLength="1"/><line x1="30" y1="50" x2="10" y2="50.00000000000001" stroke="currentColor" stroke-width="1.6" stroke-linecap="round" pathLength="1"/><circle cx="10.0" cy="50.0" r="3.4" fill="none" stroke="currentColor" stroke-width="1.4" pathLength="1"/><line x1="35.85786437626905" y1="35.85786437626905" x2="21.71572875253809" y2="21.7157287525381" stroke="currentColor" stroke-width="1.6" stroke-linecap="round" pathLength="1"/><polygon points="21.7,15.7 26.9,24.7 16.5,24.7" fill="none" stroke="currentColor" stroke-width="1.4" stroke-linejoin="round" pathLength="1"/><line x1="49.99999999999999" y1="30" x2="49.99999999999999" y2="10" stroke="currentColor" stroke-width="1.6" stroke-linecap="round" pathLength="1"/><circle cx="50.0" cy="10.0" r="3.4" fill="none" stroke="currentColor" stroke-width="1.4" pathLength="1"/><line x1="64.14213562373095" y1="35.85786437626905" x2="78.2842712474619" y2="21.71572875253809" stroke="currentColor" stroke-width="1.6" stroke-linecap="round" pathLength="1"/><polygon points="78.3,15.7 83.5,24.7 73.1,24.7" fill="none" stroke="currentColor" stroke-width="1.4" stroke-linejoin="round" pathLength="1"/><line x1="50" y1="66" x2="50" y2="40" stroke="currentColor" stroke-width="2.6" stroke-linecap="round" pathLength="1"/><path d="M50,40 C 40,40 37,31 37,23" fill="none" stroke="currentColor" stroke-width="2.2" stroke-linecap="round" stroke-linejoin="round" pathLength="1"/><path d="M50,40 C 60,40 63,31 63,23" fill="none" stroke="currentColor" stroke-width="2.2" stroke-linecap="round" stroke-linejoin="round" pathLength="1"/><line x1="50" y1="40" x2="50" y2="24" stroke="currentColor" stroke-width="2.4" stroke-linecap="round" pathLength="1"/><polygon points="47.5,24 52.5,24 50,17" fill="none" stroke="currentColor" stroke-width="1.8" stroke-linejoin="round" pathLength="1"/><polygon points="34.5,23 39.5,23 37,16" fill="none" stroke="currentColor" stroke-width="1.6" stroke-linejoin="round" pathLength="1"/><polygon points="60.5,23 65.5,23 63,16" fill="none" stroke="currentColor" stroke-width="1.6" stroke-linejoin="round" pathLength="1"/><line x1="44" y1="66" x2="56" y2="66" stroke="currentColor" stroke-width="2.4" stroke-linecap="round" pathLength="1"/></g></svg>