<svg xmlns="http://www.w3.org/2000/svg" width="140" height="140" viewBox="0 0 100 100"><g fill="none" stroke="#d1553f" stroke-width="2.4" stroke-linecap="round" stroke-linejoin="round"><circle cx="50" cy="50" r="36" fill="none" stroke="currentColor" stroke-width="2.2" pathLength="1"/><line x1="50" y1="72" x2="50" y2="34" stroke="currentColor" stroke-width="2.6" stroke-linecap="round" pathLength="1"/><path d="M50,34 C 38,34 34,24 34,16" fill="none" stroke="currentColor" stroke-width="2.2" stroke-linecap="round" stroke-linejoin="round" pathLength="1"/><path d="M50,34 C 62,34 66,24 66,16" fill="none" stroke="currentColor" stroke-width="2.2" stroke-linecap="round" stroke-linejoin="round" pathLength="1"/><line x1="50" y1="40" x2="50" y2="22" stroke="currentColor" stroke-width="2.4" stroke-linecap="round" pathLength="1"/><polygon points="47,22 53,22 50,14" fill="none" stroke="currentColor" stroke-width="2" stroke-linejoin="round" pathLength="1"/><polygon points="31,16 37,16 34,8" fill="none" stroke="currentColor" stroke-width="1.8" stroke-linejoin="round" pathLength="1"/><polygon points="63,16 69,16 66,8" fill="none" stroke="currentColor" stroke-width="1.8" stroke-linejoin="round" pathLength="1"/><line x1="86" y1="50" x2="96" y2="50" stroke="currentColor" stroke-width="1.4" stroke-linecap="round" pathLength="1"/><line x1="92.5724449865242" y1="52.06200548728586" x2="96" y2="50" stroke="currentColor" stroke-width="2.4" stroke-linecap="round" pathLength="1"/><line x1="92.5724449865242" y1="47.93799451271414" x2="96" y2="50" stroke="currentColor" stroke-width="2.4" stroke-linecap="round" pathLength="1"/><line x1="75.45584412271572" y1="75.45584412271572" x2="82.5269119345812" y2="82.5269119345812" stroke="currentColor" stroke-width="1.4" stroke-linecap="round" pathLength="1"/><line x1="78.64520647875881" y1="81.56132260456621" x2="82.5269119345812" y2="82.5269119345812" stroke="currentColor" stroke-width="2.4" stroke-linecap="round" pathLength="1"/><line x1="81.56132260456621" y1="78.64520647875881" x2="82.5269119345812" y2="82.5269119345812" stroke="currentColor" stroke-width="2.4" stroke-linecap="round" pathLength="1"/><line x1="50" y1="86" x2="50" y2="96" stroke="currentColor" stroke-width="1.4" stroke-linecap="round" pathLength="1"/><line x1="47.93799451271414" y1="92.57244498652422" x2="50" y2="96" stroke="currentColor" stroke-width="2.4" stroke-linecap="round" pathLength="1"/><line x1="52.06200548728586" y1="92.5724449865242" x2="50" y2="96" stroke="currentColor" stroke-width="2.4" stroke-linecap="round" pathLength="1"/><line x1="24.54415587728429" y1="75.45584412271572" x2="17.473088065418814" y2="82.5269119345812" stroke="currentColor" stroke-width="1.4" stroke-linecap="round" pathLength="1"/><line x1="18.438677395433793" y1="78.64520647875881" x2="17.473088065418814" y2="82.5269119345812" stroke="currentColor" stroke-width="2.4" stroke-linecap="round" pathLength="1"/><line x1="21.35479352124119" y1="81.56132260456621" x2="17.473088065418814" y2="82.5269119345812" stroke="currentColor" stroke-width="2.4" stroke-linecap="round" pathLength="1"/><line x1="14" y1="50.00000000000001" x2="4" y2="50.00000000000001" stroke="currentColor" stroke-width="1.4" stroke-linecap="round" pathLength="1"/><line x1="7.4275550134757875" y1="47.93799451271415" x2="4" y2="50.00000000000001" stroke="currentColor" stroke-width="2.4" stroke-linecap="round" pathLength="1"/><line x1="7.427555013475789" y1="52.062005487285866" x2="4" y2="50.00000000000001" stroke="currentColor" stroke-width="2.4" stroke-linecap="round" pathLength="1"/><line x1="24.544155877284282" y1="24.54415587728429" x2="17.473088065418807" y2="17.473088065418814" stroke="currentColor" stroke-width="1.4" stroke-linecap="round" pathLength="1"/><line x1="21.354793521241184" y1="18.438677395433793" x2="17.473088065418807" y2="17.473088065418814" stroke="currentColor" stroke-width="2.4" stroke-linecap="round" pathLength="1"/><line x1="18.438677395433785" y1="21.35479352124119" x2="17.473088065418807" y2="17.473088065418814" stroke="currentColor" stroke-width="2.4" stroke-linecap="round" pathLength="1"/><line x1="49.99999999999999" y1="14" x2="49.99999999999999" y2="4" stroke="currentColor" stroke-width="1.4" stroke-linecap="round" pathLength="1"/><line x1="52.06200548728585" y1="7.4275550134757875" x2="49.99999999999999" y2="4" stroke="currentColor" stroke-width="2.4" stroke-linecap="round" pathLength="1"/><line x1="47.937994512714134" y1="7.427555013475789" x2="49.99999999999999" y2="4" stroke="currentColor" stroke-width="2.4" stroke-linecap="round" pathLength="1"/><line x1="75.4558441227157" y1="24.544155877284282" x2="82.52691193458118" y2="17.473088065418807" stroke="currentColor" stroke-width="1.4" stroke-linecap="round" pathLength="1"/><line x1="81.5613226045662" y1="21.354793521241184" x2="82.52691193458118" y2="17.473088065418807" stroke="currentColor" stroke-width="2.4" stroke-linecap="round" pathLength="1"/><line x1="78.6452064787588" y1="18.438677395433785" x2="82.52691193458118" y2="17.473088065418807" stroke="currentColor" stroke-width="2.4" stroke-linecap="round" pathLength="1"/></g></svg>