<svg xmlns="http://www.w3.org/2000/svg" width="240" height="240" viewBox="0 0 240 240"><g><circle cx="120" cy="120" r="105.6" fill="none" stroke="#c05a78" stroke-width="1.4"/><path d="M 120 120 Q 173.1 142.4 216.0 120.0 Q 173.1 97.6 120 120 Z" fill="none" stroke="#c05a78" stroke-width="1.3"/><path d="M 120 120 Q 141.7 173.4 187.9 187.9 Q 173.4 141.7 120 120 Z" fill="none" stroke="#c05a78" stroke-width="1.3"/><path d="M 120 120 Q 97.6 173.1 120.0 216.0 Q 142.4 173.1 120 120 Z" fill="none" stroke="#c05a78" stroke-width="1.3"/><path d="M 120 120 Q 66.6 141.7 52.1 187.9 Q 98.3 173.4 120 120 Z" fill="none" stroke="#c05a78" stroke-width="1.3"/><path d="M 120 120 Q 66.9 97.6 24.0 120.0 Q 66.9 142.4 120 120 Z" fill="none" stroke="#c05a78" stroke-width="1.3"/><path d="M 120 120 Q 98.3 66.6 52.1 52.1 Q 66.6 98.3 120 120 Z" fill="none" stroke="#c05a78" stroke-width="1.3"/><path d="M 120 120 Q 142.4 66.9 120.0 24.0 Q 97.6 66.9 120 120 Z" fill="none" stroke="#c05a78" stroke-width="1.3"/><path d="M 120 120 Q 173.4 98.3 187.9 52.1 Q 141.7 66.6 120 120 Z" fill="none" stroke="#c05a78" stroke-width="1.3"/></g></svg>