<svg xmlns="http://www.w3.org/2000/svg" width="240" height="240" viewBox="0 0 240 240"><g><circle cx="120" cy="120" r="105.6" fill="none" stroke="#5566c8" stroke-width="1.4"/><g transform="rotate(0 120 120)"><path d="M 120 120 L 120.0 120.0 L 121.8 120.6 L 123.0 122.3 L 123.2 124.8 L 122.0 127.4 L 119.4 129.6 L 115.6 130.7 L 111.2 130.1 L 106.7 127.7 L 103.1 123.5 L 101.0 117.6 L 101.0 110.8 L 103.6 103.8 L 108.8 97.7 L 116.3 93.4 L 125.4 91.7 L 135.1 93.3 L 144.3 98.3 L 151.8 106.5 L 156.4 117.3 L 157.2 129.5 L 153.8 142.0 L 146.1 153.2 L 134.7 161.6 L 120.6 166.1 L 105.2 165.7 L 90.2 160.0 L 77.3 149.4 L 68.3 134.7 L 64.4 117.2 L 66.4 98.8 L 74.6 81.5 L 88.4 67.3 L 106.6 58.1 L 127.4 55.1 L 148.6 59.2 L 167.9 70.2 L 183.1 87.4 L 192.1 109.0 L 193.7 133.1 L 187.3 157.0 L 173.2 178.1 L 152.5 193.8 L 127.3 202.2 L 100.0 202.1 L 73.7 192.9 L 51.2 175.4 L 35.3 151.1 L 27.9 122.3 L 30.2 92.1" fill="none" stroke="#5566c8" stroke-width="1.5"/></g></g></svg>