<svg xmlns="http://www.w3.org/2000/svg" width="240" height="240" viewBox="0 0 240 240"><g><circle cx="120" cy="120" r="109.4" fill="none" stroke="#5aa8dc" stroke-width="1.4"/><circle cx="120" cy="120" r="32.6" fill="none" stroke="#5aa8dc" stroke-width="1.4"/><polygon points="120.0,37.4 131.3,72.2 101.7,50.7 138.3,50.7 108.7,72.2" fill="none" stroke="#5aa8dc" stroke-width="1.1"/><polygon points="169.5,61.3 180.8,96.0 151.3,74.6 187.8,74.6 158.3,96.0" fill="none" stroke="#5aa8dc" stroke-width="1.1"/><polygon points="181.8,114.9 193.1,149.6 163.5,128.2 200.0,128.2 170.5,149.6" fill="none" stroke="#5aa8dc" stroke-width="1.1"/><polygon points="147.5,157.9 158.8,192.6 129.2,171.2 165.8,171.2 136.2,192.6" fill="none" stroke="#5aa8dc" stroke-width="1.1"/><polygon points="92.5,157.9 103.8,192.6 74.2,171.2 110.8,171.2 81.2,192.6" fill="none" stroke="#5aa8dc" stroke-width="1.1"/><polygon points="58.2,114.9 69.5,149.6 40.0,128.2 76.5,128.2 46.9,149.6" fill="none" stroke="#5aa8dc" stroke-width="1.1"/><polygon points="70.5,61.3 81.7,96.0 52.2,74.6 88.7,74.6 59.2,96.0" fill="none" stroke="#5aa8dc" stroke-width="1.1"/></g></svg>