<svg xmlns="http://www.w3.org/2000/svg" width="240" height="240" viewBox="0 0 240 240"><g><circle cx="120" cy="120" r="107.5" fill="none" stroke="#e6863a" stroke-width="1.4"/><circle cx="120" cy="120" r="3" fill="#e6863a"/><polyline points="120.0,120.0 139.1,122.3 158.1,115.4 177.2,126.9 196.2,110.8 215.3,131.5" fill="none" stroke="#e6863a" stroke-width="1.4" stroke-linejoin="round"/><polyline points="120.0,120.0 131.9,135.1 150.2,143.7 155.6,165.3 180.4,167.4 179.3,195.5" fill="none" stroke="#e6863a" stroke-width="1.4" stroke-linejoin="round"/><polyline points="120.0,120.0 117.7,139.1 124.6,158.1 113.1,177.2 129.2,196.2 108.5,215.3" fill="none" stroke="#e6863a" stroke-width="1.4" stroke-linejoin="round"/><polyline points="120.0,120.0 104.9,131.9 96.3,150.2 74.7,155.6 72.6,180.4 44.5,179.3" fill="none" stroke="#e6863a" stroke-width="1.4" stroke-linejoin="round"/><polyline points="120.0,120.0 100.9,117.7 81.9,124.6 62.8,113.1 43.8,129.2 24.7,108.5" fill="none" stroke="#e6863a" stroke-width="1.4" stroke-linejoin="round"/><polyline points="120.0,120.0 108.1,104.9 89.8,96.3 84.4,74.7 59.6,72.6 60.7,44.5" fill="none" stroke="#e6863a" stroke-width="1.4" stroke-linejoin="round"/><polyline points="120.0,120.0 122.3,100.9 115.4,81.9 126.9,62.8 110.8,43.8 131.5,24.7" fill="none" stroke="#e6863a" stroke-width="1.4" stroke-linejoin="round"/><polyline points="120.0,120.0 135.1,108.1 143.7,89.8 165.3,84.4 167.4,59.6 195.5,60.7" fill="none" stroke="#e6863a" stroke-width="1.4" stroke-linejoin="round"/></g></svg>