<svg xmlns="http://www.w3.org/2000/svg" width="240" height="240" viewBox="0 0 240 240"><g><circle cx="120" cy="120" r="103.7" fill="none" stroke="#a98bd0" stroke-width="1.4"/><polygon points="168.0,120.0 186.4,139.1 216.0,120.0 186.4,100.9" fill="none" stroke="#a98bd0" stroke-width="1.3"/><polygon points="153.9,153.9 153.5,180.5 187.9,187.9 180.5,153.5" fill="none" stroke="#a98bd0" stroke-width="1.3"/><polygon points="120.0,168.0 100.9,186.4 120.0,216.0 139.1,186.4" fill="none" stroke="#a98bd0" stroke-width="1.3"/><polygon points="86.1,153.9 59.5,153.5 52.1,187.9 86.5,180.5" fill="none" stroke="#a98bd0" stroke-width="1.3"/><polygon points="72.0,120.0 53.6,100.9 24.0,120.0 53.6,139.1" fill="none" stroke="#a98bd0" stroke-width="1.3"/><polygon points="86.1,86.1 86.5,59.5 52.1,52.1 59.5,86.5" fill="none" stroke="#a98bd0" stroke-width="1.3"/><polygon points="120.0,72.0 139.1,53.6 120.0,24.0 100.9,53.6" fill="none" stroke="#a98bd0" stroke-width="1.3"/><polygon points="153.9,86.1 180.5,86.5 187.9,52.1 153.5,59.5" fill="none" stroke="#a98bd0" stroke-width="1.3"/></g></svg>