<svg xmlns="http://www.w3.org/2000/svg" width="240" height="240" viewBox="0 0 240 240"><g><circle cx="120" cy="120" r="103.7" fill="none" stroke="#e8b563" stroke-width="1.4"/><circle cx="120" cy="120" r="13.4" fill="#e8b563"/><line x1="137.3" y1="120.0" x2="216.0" y2="120.0" stroke="#e8b563" stroke-width="1" stroke-linecap="round"/><circle cx="154.8" cy="120.0" r="2.4" fill="none" stroke="#e8b563" stroke-width="1.1"/><circle cx="172.3" cy="120.0" r="2.4" fill="none" stroke="#e8b563" stroke-width="1.1"/><circle cx="189.8" cy="120.0" r="2.4" fill="none" stroke="#e8b563" stroke-width="1.1"/><circle cx="207.3" cy="120.0" r="2.4" fill="none" stroke="#e8b563" stroke-width="1.1"/><line x1="132.2" y1="132.2" x2="187.9" y2="187.9" stroke="#e8b563" stroke-width="1" stroke-linecap="round"/><circle cx="144.6" cy="144.6" r="2.4" fill="none" stroke="#e8b563" stroke-width="1.1"/><circle cx="157.0" cy="157.0" r="2.4" fill="none" stroke="#e8b563" stroke-width="1.1"/><circle cx="169.3" cy="169.3" r="2.4" fill="none" stroke="#e8b563" stroke-width="1.1"/><circle cx="181.7" cy="181.7" r="2.4" fill="none" stroke="#e8b563" stroke-width="1.1"/><line x1="120.0" y1="137.3" x2="120.0" y2="216.0" stroke="#e8b563" stroke-width="1" stroke-linecap="round"/><circle cx="120.0" cy="154.8" r="2.4" fill="none" stroke="#e8b563" stroke-width="1.1"/><circle cx="120.0" cy="172.3" r="2.4" fill="none" stroke="#e8b563" stroke-width="1.1"/><circle cx="120.0" cy="189.8" r="2.4" fill="none" stroke="#e8b563" stroke-width="1.1"/><circle cx="120.0" cy="207.3" r="2.4" fill="none" stroke="#e8b563" stroke-width="1.1"/><line x1="107.8" y1="132.2" x2="52.1" y2="187.9" stroke="#e8b563" stroke-width="1" stroke-linecap="round"/><circle cx="95.4" cy="144.6" r="2.4" fill="none" stroke="#e8b563" stroke-width="1.1"/><circle cx="83.0" cy="157.0" r="2.4" fill="none" stroke="#e8b563" stroke-width="1.1"/><circle cx="70.7" cy="169.3" r="2.4" fill="none" stroke="#e8b563" stroke-width="1.1"/><circle cx="58.3" cy="181.7" r="2.4" fill="none" stroke="#e8b563" stroke-width="1.1"/><line x1="102.7" y1="120.0" x2="24.0" y2="120.0" stroke="#e8b563" stroke-width="1" stroke-linecap="round"/><circle cx="85.2" cy="120.0" r="2.4" fill="none" stroke="#e8b563" stroke-width="1.1"/><circle cx="67.7" cy="120.0" r="2.4" fill="none" stroke="#e8b563" stroke-width="1.1"/><circle cx="50.2" cy="120.0" r="2.4" fill="none" stroke="#e8b563" stroke-width="1.1"/><circle cx="32.7" cy="120.0" r="2.4" fill="none" stroke="#e8b563" stroke-width="1.1"/><line x1="107.8" y1="107.8" x2="52.1" y2="52.1" stroke="#e8b563" stroke-width="1" stroke-linecap="round"/><circle cx="95.4" cy="95.4" r="2.4" fill="none" stroke="#e8b563" stroke-width="1.1"/><circle cx="83.0" cy="83.0" r="2.4" fill="none" stroke="#e8b563" stroke-width="1.1"/><circle cx="70.7" cy="70.7" r="2.4" fill="none" stroke="#e8b563" stroke-width="1.1"/><circle cx="58.3" cy="58.3" r="2.4" fill="none" stroke="#e8b563" stroke-width="1.1"/><line x1="120.0" y1="102.7" x2="120.0" y2="24.0" stroke="#e8b563" stroke-width="1" stroke-linecap="round"/><circle cx="120.0" cy="85.2" r="2.4" fill="none" stroke="#e8b563" stroke-width="1.1"/><circle cx="120.0" cy="67.7" r="2.4" fill="none" stroke="#e8b563" stroke-width="1.1"/><circle cx="120.0" cy="50.2" r="2.4" fill="none" stroke="#e8b563" stroke-width="1.1"/><circle cx="120.0" cy="32.7" r="2.4" fill="none" stroke="#e8b563" stroke-width="1.1"/><line x1="132.2" y1="107.8" x2="187.9" y2="52.1" stroke="#e8b563" stroke-width="1" stroke-linecap="round"/><circle cx="144.6" cy="95.4" r="2.4" fill="none" stroke="#e8b563" stroke-width="1.1"/><circle cx="157.0" cy="83.0" r="2.4" fill="none" stroke="#e8b563" stroke-width="1.1"/><circle cx="169.3" cy="70.7" r="2.4" fill="none" stroke="#e8b563" stroke-width="1.1"/><circle cx="181.7" cy="58.3" r="2.4" fill="none" stroke="#e8b563" stroke-width="1.1"/></g></svg>