<svg xmlns="http://www.w3.org/2000/svg" width="240" height="240" viewBox="0 0 240 240"><g><circle cx="120" cy="120" r="109.4" fill="none" stroke="#f0b24e" stroke-width="1.4"/><g transform="translate(120,120) rotate(-90) translate(0,-48)">
        <path d="M0,32.6 C -32.64,0 -28.799999999999997,-32.64 0,-11.52 C 28.799999999999997,-32.64 32.64,0 0,32.6 Z" fill="none" stroke="#f0b24e" stroke-width="1.5"/></g><g transform="translate(120,120) rotate(-18) translate(0,-48)">
        <path d="M0,32.6 C -32.64,0 -28.799999999999997,-32.64 0,-11.52 C 28.799999999999997,-32.64 32.64,0 0,32.6 Z" fill="none" stroke="#f0b24e" stroke-width="1.5"/></g><g transform="translate(120,120) rotate(54) translate(0,-48)">
        <path d="M0,32.6 C -32.64,0 -28.799999999999997,-32.64 0,-11.52 C 28.799999999999997,-32.64 32.64,0 0,32.6 Z" fill="none" stroke="#f0b24e" stroke-width="1.5"/></g><g transform="translate(120,120) rotate(126) translate(0,-48)">
        <path d="M0,32.6 C -32.64,0 -28.799999999999997,-32.64 0,-11.52 C 28.799999999999997,-32.64 32.64,0 0,32.6 Z" fill="none" stroke="#f0b24e" stroke-width="1.5"/></g><g transform="translate(120,120) rotate(198) translate(0,-48)">
        <path d="M0,32.6 C -32.64,0 -28.799999999999997,-32.64 0,-11.52 C 28.799999999999997,-32.64 32.64,0 0,32.6 Z" fill="none" stroke="#f0b24e" stroke-width="1.5"/></g></g></svg>