<svg xmlns="http://www.w3.org/2000/svg" width="240" height="240" viewBox="0 0 240 240"><g><circle cx="120" cy="120" r="105.6" fill="none" stroke="#e8c14e" stroke-width="1.4"/><g transform="rotate(0 120 120)"><path d="M 120 120 L 120.0 120.0 L 121.8 120.8 L 122.7 122.8 L 122.1 125.4 L 119.7 127.7 L 115.9 128.7 L 111.4 127.7 L 107.3 124.3 L 104.7 118.8 L 104.7 112.1 L 107.8 105.2 L 114.0 99.8 L 122.6 97.1 L 132.3 98.3 L 141.3 103.7 L 147.9 112.8 L 150.4 124.6 L 147.8 137.1 L 140.0 148.2 L 127.7 155.7 L 112.8 157.7 L 97.5 153.5 L 84.6 143.1 L 76.5 127.7 L 75.1 109.7 L 81.2 91.8 L 94.3 77.2 L 112.9 68.7 L 134.0 68.1 L 154.4 76.2 L 170.5 92.3 L 179.2 114.0 L 178.7 138.3 L 168.3 161.0 L 149.3 178.3 L 124.2 187.1 L 97.0 185.2 L 72.0 172.4 L 53.6 150.2 L 45.1 121.9 L 48.6 91.7 L 64.0 64.7 L 89.4 45.4 L 121.0 37.4 L 154.0 42.7 L 183.0 60.9 L 202.9 89.6 L 210.1 124.5 L 202.9 160.3 L 181.8 191.0" fill="none" stroke="#e8c14e" stroke-width="1.5"/></g><g transform="rotate(60 120 120)"><path d="M 120 120 L 120.0 120.0 L 121.8 120.8 L 122.7 122.8 L 122.1 125.4 L 119.7 127.7 L 115.9 128.7 L 111.4 127.7 L 107.3 124.3 L 104.7 118.8 L 104.7 112.1 L 107.8 105.2 L 114.0 99.8 L 122.6 97.1 L 132.3 98.3 L 141.3 103.7 L 147.9 112.8 L 150.4 124.6 L 147.8 137.1 L 140.0 148.2 L 127.7 155.7 L 112.8 157.7 L 97.5 153.5 L 84.6 143.1 L 76.5 127.7 L 75.1 109.7 L 81.2 91.8 L 94.3 77.2 L 112.9 68.7 L 134.0 68.1 L 154.4 76.2 L 170.5 92.3 L 179.2 114.0 L 178.7 138.3 L 168.3 161.0 L 149.3 178.3 L 124.2 187.1 L 97.0 185.2 L 72.0 172.4 L 53.6 150.2 L 45.1 121.9 L 48.6 91.7 L 64.0 64.7 L 89.4 45.4 L 121.0 37.4 L 154.0 42.7 L 183.0 60.9 L 202.9 89.6 L 210.1 124.5 L 202.9 160.3 L 181.8 191.0" fill="none" stroke="#e8c14e" stroke-width="1.5"/></g><g transform="rotate(120 120 120)"><path d="M 120 120 L 120.0 120.0 L 121.8 120.8 L 122.7 122.8 L 122.1 125.4 L 119.7 127.7 L 115.9 128.7 L 111.4 127.7 L 107.3 124.3 L 104.7 118.8 L 104.7 112.1 L 107.8 105.2 L 114.0 99.8 L 122.6 97.1 L 132.3 98.3 L 141.3 103.7 L 147.9 112.8 L 150.4 124.6 L 147.8 137.1 L 140.0 148.2 L 127.7 155.7 L 112.8 157.7 L 97.5 153.5 L 84.6 143.1 L 76.5 127.7 L 75.1 109.7 L 81.2 91.8 L 94.3 77.2 L 112.9 68.7 L 134.0 68.1 L 154.4 76.2 L 170.5 92.3 L 179.2 114.0 L 178.7 138.3 L 168.3 161.0 L 149.3 178.3 L 124.2 187.1 L 97.0 185.2 L 72.0 172.4 L 53.6 150.2 L 45.1 121.9 L 48.6 91.7 L 64.0 64.7 L 89.4 45.4 L 121.0 37.4 L 154.0 42.7 L 183.0 60.9 L 202.9 89.6 L 210.1 124.5 L 202.9 160.3 L 181.8 191.0" fill="none" stroke="#e8c14e" stroke-width="1.5"/></g><g transform="rotate(180 120 120)"><path d="M 120 120 L 120.0 120.0 L 121.8 120.8 L 122.7 122.8 L 122.1 125.4 L 119.7 127.7 L 115.9 128.7 L 111.4 127.7 L 107.3 124.3 L 104.7 118.8 L 104.7 112.1 L 107.8 105.2 L 114.0 99.8 L 122.6 97.1 L 132.3 98.3 L 141.3 103.7 L 147.9 112.8 L 150.4 124.6 L 147.8 137.1 L 140.0 148.2 L 127.7 155.7 L 112.8 157.7 L 97.5 153.5 L 84.6 143.1 L 76.5 127.7 L 75.1 109.7 L 81.2 91.8 L 94.3 77.2 L 112.9 68.7 L 134.0 68.1 L 154.4 76.2 L 170.5 92.3 L 179.2 114.0 L 178.7 138.3 L 168.3 161.0 L 149.3 178.3 L 124.2 187.1 L 97.0 185.2 L 72.0 172.4 L 53.6 150.2 L 45.1 121.9 L 48.6 91.7 L 64.0 64.7 L 89.4 45.4 L 121.0 37.4 L 154.0 42.7 L 183.0 60.9 L 202.9 89.6 L 210.1 124.5 L 202.9 160.3 L 181.8 191.0" fill="none" stroke="#e8c14e" stroke-width="1.5"/></g><g transform="rotate(240 120 120)"><path d="M 120 120 L 120.0 120.0 L 121.8 120.8 L 122.7 122.8 L 122.1 125.4 L 119.7 127.7 L 115.9 128.7 L 111.4 127.7 L 107.3 124.3 L 104.7 118.8 L 104.7 112.1 L 107.8 105.2 L 114.0 99.8 L 122.6 97.1 L 132.3 98.3 L 141.3 103.7 L 147.9 112.8 L 150.4 124.6 L 147.8 137.1 L 140.0 148.2 L 127.7 155.7 L 112.8 157.7 L 97.5 153.5 L 84.6 143.1 L 76.5 127.7 L 75.1 109.7 L 81.2 91.8 L 94.3 77.2 L 112.9 68.7 L 134.0 68.1 L 154.4 76.2 L 170.5 92.3 L 179.2 114.0 L 178.7 138.3 L 168.3 161.0 L 149.3 178.3 L 124.2 187.1 L 97.0 185.2 L 72.0 172.4 L 53.6 150.2 L 45.1 121.9 L 48.6 91.7 L 64.0 64.7 L 89.4 45.4 L 121.0 37.4 L 154.0 42.7 L 183.0 60.9 L 202.9 89.6 L 210.1 124.5 L 202.9 160.3 L 181.8 191.0" fill="none" stroke="#e8c14e" stroke-width="1.5"/></g><g transform="rotate(300 120 120)"><path d="M 120 120 L 120.0 120.0 L 121.8 120.8 L 122.7 122.8 L 122.1 125.4 L 119.7 127.7 L 115.9 128.7 L 111.4 127.7 L 107.3 124.3 L 104.7 118.8 L 104.7 112.1 L 107.8 105.2 L 114.0 99.8 L 122.6 97.1 L 132.3 98.3 L 141.3 103.7 L 147.9 112.8 L 150.4 124.6 L 147.8 137.1 L 140.0 148.2 L 127.7 155.7 L 112.8 157.7 L 97.5 153.5 L 84.6 143.1 L 76.5 127.7 L 75.1 109.7 L 81.2 91.8 L 94.3 77.2 L 112.9 68.7 L 134.0 68.1 L 154.4 76.2 L 170.5 92.3 L 179.2 114.0 L 178.7 138.3 L 168.3 161.0 L 149.3 178.3 L 124.2 187.1 L 97.0 185.2 L 72.0 172.4 L 53.6 150.2 L 45.1 121.9 L 48.6 91.7 L 64.0 64.7 L 89.4 45.4 L 121.0 37.4 L 154.0 42.7 L 183.0 60.9 L 202.9 89.6 L 210.1 124.5 L 202.9 160.3 L 181.8 191.0" fill="none" stroke="#e8c14e" stroke-width="1.5"/></g></g></svg>