<svg xmlns="http://www.w3.org/2000/svg" width="120" height="120" viewBox="0 0 100 100"><g fill="none" stroke="#5a7fc0" stroke-width="2.4" stroke-linecap="round" stroke-linejoin="round"><circle cx="50" cy="50" r="3" fill="none" stroke="currentColor" stroke-width="1.4" pathLength="1"/><path d="M50,50 Q 65.8,58.6 80.0,50.0 Q 65.8,41.4 50,50 Z" fill="none" stroke="currentColor" stroke-width="1.8" stroke-linecap="round" stroke-linejoin="round" pathLength="1"/><path d="M50,50 Q 50.4,68.0 65.0,76.0 Q 65.4,59.4 50,50 Z" fill="none" stroke="currentColor" stroke-width="1.8" stroke-linecap="round" stroke-linejoin="round" pathLength="1"/><path d="M50,50 Q 34.6,59.4 35.0,76.0 Q 49.6,68.0 50,50 Z" fill="none" stroke="currentColor" stroke-width="1.8" stroke-linecap="round" stroke-linejoin="round" pathLength="1"/><path d="M50,50 Q 34.2,41.4 20.0,50.0 Q 34.2,58.6 50,50 Z" fill="none" stroke="currentColor" stroke-width="1.8" stroke-linecap="round" stroke-linejoin="round" pathLength="1"/><path d="M50,50 Q 49.6,32.0 35.0,24.0 Q 34.6,40.6 50,50 Z" fill="none" stroke="currentColor" stroke-width="1.8" stroke-linecap="round" stroke-linejoin="round" pathLength="1"/><path d="M50,50 Q 65.4,40.6 65.0,24.0 Q 50.4,32.0 50,50 Z" fill="none" stroke="currentColor" stroke-width="1.8" stroke-linecap="round" stroke-linejoin="round" pathLength="1"/></g></svg>