<svg xmlns="http://www.w3.org/2000/svg" width="120" height="120" viewBox="0 0 100 100"><g fill="none" stroke="#e8b563" stroke-width="2.4" stroke-linecap="round" stroke-linejoin="round"><path d="M 50 18 L 54.6 20.7 L 58.5 23.3 L 61.1 26.0 L 62.0 28.7 L 61.1 31.3 L 58.5 34.0 L 54.6 36.7 L 50.0 39.3 L 45.4 42.0 L 41.5 44.7 L 38.9 47.3 L 38.0 50.0 L 38.9 52.7 L 41.5 55.3 L 45.4 58.0 L 50.0 60.7 L 54.6 63.3 L 58.5 66.0 L 61.1 68.7 L 62.0 71.3 L 61.1 74.0 L 58.5 76.7 L 54.6 79.3 L 50.0 82.0" fill="none" stroke="currentColor" stroke-width="2.2" stroke-linecap="round" stroke-linejoin="round" pathLength="1"/><path d="M 50 18 L 45.4 20.7 L 41.5 23.3 L 38.9 26.0 L 38.0 28.7 L 38.9 31.3 L 41.5 34.0 L 45.4 36.7 L 50.0 39.3 L 54.6 42.0 L 58.5 44.7 L 61.1 47.3 L 62.0 50.0 L 61.1 52.7 L 58.5 55.3 L 54.6 58.0 L 50.0 60.7 L 45.4 63.3 L 41.5 66.0 L 38.9 68.7 L 38.0 71.3 L 38.9 74.0 L 41.5 76.7 L 45.4 79.3 L 50.0 82.0" fill="none" stroke="currentColor" stroke-width="2.2" stroke-linecap="round" stroke-linejoin="round" pathLength="1"/></g></svg>