<svg xmlns="http://www.w3.org/2000/svg" width="120" height="120" viewBox="0 0 100 100"><g fill="none" stroke="#a98bd0" stroke-width="2.4" stroke-linecap="round" stroke-linejoin="round"><polygon points="62.0,50.0 73.2,56.2 86.0,50.0 73.2,43.8" fill="none" stroke="currentColor" stroke-width="1.8" stroke-linejoin="round" pathLength="1"/><polygon points="58.5,58.5 62.0,70.8 75.5,75.5 70.8,62.0" fill="none" stroke="currentColor" stroke-width="1.8" stroke-linejoin="round" pathLength="1"/><polygon points="50.0,62.0 43.8,73.2 50.0,86.0 56.2,73.2" fill="none" stroke="currentColor" stroke-width="1.8" stroke-linejoin="round" pathLength="1"/><polygon points="41.5,58.5 29.2,62.0 24.5,75.5 38.0,70.8" fill="none" stroke="currentColor" stroke-width="1.8" stroke-linejoin="round" pathLength="1"/><polygon points="38.0,50.0 26.8,43.8 14.0,50.0 26.8,56.2" fill="none" stroke="currentColor" stroke-width="1.8" stroke-linejoin="round" pathLength="1"/><polygon points="41.5,41.5 38.0,29.2 24.5,24.5 29.2,38.0" fill="none" stroke="currentColor" stroke-width="1.8" stroke-linejoin="round" pathLength="1"/><polygon points="50.0,38.0 56.2,26.8 50.0,14.0 43.8,26.8" fill="none" stroke="currentColor" stroke-width="1.8" stroke-linejoin="round" pathLength="1"/><polygon points="58.5,41.5 70.8,38.0 75.5,24.5 62.0,29.2" fill="none" stroke="currentColor" stroke-width="1.8" stroke-linejoin="round" pathLength="1"/></g></svg>