<svg xmlns="http://www.w3.org/2000/svg" width="120" height="120" viewBox="0 0 100 100"><g fill="none" stroke="#5566c8" stroke-width="2.4" stroke-linecap="round" stroke-linejoin="round"><path d="M 50 50 L 50.0 50.0 L 50.6 50.2 L 51.0 50.8 L 51.1 51.6 L 50.7 52.5 L 49.8 53.2 L 48.5 53.6 L 47.1 53.4 L 45.6 52.6 L 44.4 51.2 L 43.7 49.2 L 43.7 46.9 L 44.5 44.6 L 46.3 42.6 L 48.8 41.1 L 51.8 40.6 L 55.0 41.1 L 58.1 42.8 L 60.6 45.5 L 62.1 49.1 L 62.4 53.2 L 61.3 57.3 L 58.7 61.1 L 54.9 63.9 L 50.2 65.4 L 45.1 65.2 L 40.1 63.3 L 35.8 59.8 L 32.8 54.9 L 31.5 49.1 L 32.1 42.9 L 34.9 37.2 L 39.5 32.4 L 45.5 29.4 L 52.5 28.4 L 59.5 29.7 L 66.0 33.4 L 71.0 39.1 L 74.0 46.3 L 74.6 54.4 L 72.4 62.3 L 67.7 69.4 L 60.8 74.6 L 52.4 77.4 L 43.3 77.4 L 34.6 74.3 L 27.1 68.5 L 21.8 60.4 L 19.3 50.8 L 20.1 40.7" fill="none" stroke="currentColor" stroke-width="2.2" stroke-linecap="round" stroke-linejoin="round" pathLength="1"/></g></svg>