<svg xmlns="http://www.w3.org/2000/svg" width="120" height="120" viewBox="0 0 100 100"><g fill="none" stroke="#e6863a" stroke-width="2.4" stroke-linecap="round" stroke-linejoin="round"><circle cx="50" cy="50" r="3" fill="none" stroke="currentColor" stroke-width="1.6" pathLength="1"/><polyline points="56.0,49.3 62.9,51.6 69.9,47.6 76.8,53.2 83.8,45.9" fill="none" stroke="currentColor" stroke-width="1.8" stroke-linecap="round" stroke-linejoin="round" pathLength="1"/><polyline points="54.7,53.7 58.0,60.2 65.7,62.3 66.7,71.2 76.7,71.0" fill="none" stroke="currentColor" stroke-width="1.8" stroke-linecap="round" stroke-linejoin="round" pathLength="1"/><polyline points="50.7,56.0 48.4,62.9 52.4,69.9 46.8,76.8 54.1,83.8" fill="none" stroke="currentColor" stroke-width="1.8" stroke-linecap="round" stroke-linejoin="round" pathLength="1"/><polyline points="46.3,54.7 39.8,58.0 37.7,65.7 28.8,66.7 29.0,76.7" fill="none" stroke="currentColor" stroke-width="1.8" stroke-linecap="round" stroke-linejoin="round" pathLength="1"/><polyline points="44.0,50.7 37.1,48.4 30.1,52.4 23.2,46.8 16.2,54.1" fill="none" stroke="currentColor" stroke-width="1.8" stroke-linecap="round" stroke-linejoin="round" pathLength="1"/><polyline points="45.3,46.3 42.0,39.8 34.3,37.7 33.3,28.8 23.3,29.0" fill="none" stroke="currentColor" stroke-width="1.8" stroke-linecap="round" stroke-linejoin="round" pathLength="1"/><polyline points="49.3,44.0 51.6,37.1 47.6,30.1 53.2,23.2 45.9,16.2" fill="none" stroke="currentColor" stroke-width="1.8" stroke-linecap="round" stroke-linejoin="round" pathLength="1"/><polyline points="53.7,45.3 60.2,42.0 62.3,34.3 71.2,33.3 71.0,23.3" fill="none" stroke="currentColor" stroke-width="1.8" stroke-linecap="round" stroke-linejoin="round" pathLength="1"/></g></svg>