<svg xmlns="http://www.w3.org/2000/svg" width="120" height="120" viewBox="0 0 100 100"><g fill="none" stroke="#a98bd0" stroke-width="2.4" stroke-linecap="round" stroke-linejoin="round"><path d="M 50 20 L 54.6 22.5 L 58.5 25.0 L 61.1 27.5 L 62.0 30.0 L 61.1 32.5 L 58.5 35.0 L 54.6 37.5 L 50.0 40.0 L 45.4 42.5 L 41.5 45.0 L 38.9 47.5 L 38.0 50.0 L 38.9 52.5 L 41.5 55.0 L 45.4 57.5 L 50.0 60.0 L 54.6 62.5 L 58.5 65.0 L 61.1 67.5 L 62.0 70.0 L 61.1 72.5 L 58.5 75.0 L 54.6 77.5 L 50.0 80.0" fill="none" stroke="currentColor" stroke-width="2.2" stroke-linecap="round" stroke-linejoin="round" pathLength="1"/><g transform="rotate(90 50 50)"><path d="M 50 20 L 54.6 22.5 L 58.5 25.0 L 61.1 27.5 L 62.0 30.0 L 61.1 32.5 L 58.5 35.0 L 54.6 37.5 L 50.0 40.0 L 45.4 42.5 L 41.5 45.0 L 38.9 47.5 L 38.0 50.0 L 38.9 52.5 L 41.5 55.0 L 45.4 57.5 L 50.0 60.0 L 54.6 62.5 L 58.5 65.0 L 61.1 67.5 L 62.0 70.0 L 61.1 72.5 L 58.5 75.0 L 54.6 77.5 L 50.0 80.0" fill="none" stroke="currentColor" stroke-width="2.2" stroke-linecap="round" stroke-linejoin="round" pathLength="1"/></g></g></svg>