<svg xmlns="http://www.w3.org/2000/svg" width="120" height="120" viewBox="0 0 100 100"><g fill="none" stroke="#5aa8dc" stroke-width="2.4" stroke-linecap="round" stroke-linejoin="round"><polygon points="50.0,30.0 67.3,60.0 32.7,60.0" fill="none" stroke="currentColor" stroke-width="2.2" stroke-linejoin="round" pathLength="1"/><polygon points="50.0,70.0 32.7,40.0 67.3,40.0" fill="none" stroke="currentColor" stroke-width="2.2" stroke-linejoin="round" pathLength="1"/><polygon points="50.0,6.0 53.5,16.9 44.3,10.1 55.7,10.1 46.5,16.9" fill="none" stroke="currentColor" stroke-width="1.3" stroke-linejoin="round" pathLength="1"/><polygon points="82.9,25.0 86.4,35.9 77.2,29.1 88.6,29.1 79.4,35.9" fill="none" stroke="currentColor" stroke-width="1.3" stroke-linejoin="round" pathLength="1"/><polygon points="82.9,63.0 86.4,73.9 77.2,67.1 88.6,67.1 79.4,73.9" fill="none" stroke="currentColor" stroke-width="1.3" stroke-linejoin="round" pathLength="1"/><polygon points="50.0,82.0 53.5,92.9 44.3,86.1 55.7,86.1 46.5,92.9" fill="none" stroke="currentColor" stroke-width="1.3" stroke-linejoin="round" pathLength="1"/><polygon points="17.1,63.0 20.6,73.9 11.4,67.1 22.8,67.1 13.6,73.9" fill="none" stroke="currentColor" stroke-width="1.3" stroke-linejoin="round" pathLength="1"/><polygon points="17.1,25.0 20.6,35.9 11.4,29.1 22.8,29.1 13.6,35.9" fill="none" stroke="currentColor" stroke-width="1.3" stroke-linejoin="round" pathLength="1"/></g></svg>