<svg xmlns="http://www.w3.org/2000/svg" width="120" height="120" viewBox="0 0 100 100"><g fill="none" stroke="#e8c14e" stroke-width="2.4" stroke-linecap="round" stroke-linejoin="round"><g transform="rotate(0 50 50)"><path d="M 50 50 L 50.0 50.0 L 50.6 50.1 L 51.2 50.3 L 51.6 50.7 L 52.0 51.3 L 52.3 51.9 L 52.4 52.7 L 52.4 53.5 L 52.2 54.3 L 51.7 55.1 L 51.1 55.9 L 50.3 56.6 L 49.4 57.2 L 48.3 57.6 L 47.0 57.8 L 45.7 57.9 L 44.3 57.7 L 42.8 57.3 L 41.4 56.6 L 40.1 55.6 L 38.8 54.4 L 37.8 53.0 L 36.9 51.3 L 36.2 49.5 L 35.8 47.5 L 35.7 45.4 L 36.0 43.2 L 36.5 41.0 L 37.5 38.8 L 38.7 36.7 L 40.4 34.8 L 42.3 33.1 L 44.5 31.6 L 47.0 30.4 L 49.7 29.6 L 52.6 29.2 L 55.6 29.1 L 58.7 29.6 L 61.7 30.4 L 64.7 31.8 L 67.5 33.6 L 70.1 35.8 L 72.4 38.4 L 74.3 41.4 L 75.9 44.7 L 76.9 48.3 L 77.5 52.1 L 77.6 56.0 L 77.0 59.9 L 75.9 63.8" fill="none" stroke="currentColor" stroke-width="2" stroke-linecap="round" stroke-linejoin="round" pathLength="1"/></g><g transform="rotate(90 50 50)"><path d="M 50 50 L 50.0 50.0 L 50.6 50.1 L 51.2 50.3 L 51.6 50.7 L 52.0 51.3 L 52.3 51.9 L 52.4 52.7 L 52.4 53.5 L 52.2 54.3 L 51.7 55.1 L 51.1 55.9 L 50.3 56.6 L 49.4 57.2 L 48.3 57.6 L 47.0 57.8 L 45.7 57.9 L 44.3 57.7 L 42.8 57.3 L 41.4 56.6 L 40.1 55.6 L 38.8 54.4 L 37.8 53.0 L 36.9 51.3 L 36.2 49.5 L 35.8 47.5 L 35.7 45.4 L 36.0 43.2 L 36.5 41.0 L 37.5 38.8 L 38.7 36.7 L 40.4 34.8 L 42.3 33.1 L 44.5 31.6 L 47.0 30.4 L 49.7 29.6 L 52.6 29.2 L 55.6 29.1 L 58.7 29.6 L 61.7 30.4 L 64.7 31.8 L 67.5 33.6 L 70.1 35.8 L 72.4 38.4 L 74.3 41.4 L 75.9 44.7 L 76.9 48.3 L 77.5 52.1 L 77.6 56.0 L 77.0 59.9 L 75.9 63.8" fill="none" stroke="currentColor" stroke-width="2" stroke-linecap="round" stroke-linejoin="round" pathLength="1"/></g><g transform="rotate(180 50 50)"><path d="M 50 50 L 50.0 50.0 L 50.6 50.1 L 51.2 50.3 L 51.6 50.7 L 52.0 51.3 L 52.3 51.9 L 52.4 52.7 L 52.4 53.5 L 52.2 54.3 L 51.7 55.1 L 51.1 55.9 L 50.3 56.6 L 49.4 57.2 L 48.3 57.6 L 47.0 57.8 L 45.7 57.9 L 44.3 57.7 L 42.8 57.3 L 41.4 56.6 L 40.1 55.6 L 38.8 54.4 L 37.8 53.0 L 36.9 51.3 L 36.2 49.5 L 35.8 47.5 L 35.7 45.4 L 36.0 43.2 L 36.5 41.0 L 37.5 38.8 L 38.7 36.7 L 40.4 34.8 L 42.3 33.1 L 44.5 31.6 L 47.0 30.4 L 49.7 29.6 L 52.6 29.2 L 55.6 29.1 L 58.7 29.6 L 61.7 30.4 L 64.7 31.8 L 67.5 33.6 L 70.1 35.8 L 72.4 38.4 L 74.3 41.4 L 75.9 44.7 L 76.9 48.3 L 77.5 52.1 L 77.6 56.0 L 77.0 59.9 L 75.9 63.8" fill="none" stroke="currentColor" stroke-width="2" stroke-linecap="round" stroke-linejoin="round" pathLength="1"/></g><g transform="rotate(270 50 50)"><path d="M 50 50 L 50.0 50.0 L 50.6 50.1 L 51.2 50.3 L 51.6 50.7 L 52.0 51.3 L 52.3 51.9 L 52.4 52.7 L 52.4 53.5 L 52.2 54.3 L 51.7 55.1 L 51.1 55.9 L 50.3 56.6 L 49.4 57.2 L 48.3 57.6 L 47.0 57.8 L 45.7 57.9 L 44.3 57.7 L 42.8 57.3 L 41.4 56.6 L 40.1 55.6 L 38.8 54.4 L 37.8 53.0 L 36.9 51.3 L 36.2 49.5 L 35.8 47.5 L 35.7 45.4 L 36.0 43.2 L 36.5 41.0 L 37.5 38.8 L 38.7 36.7 L 40.4 34.8 L 42.3 33.1 L 44.5 31.6 L 47.0 30.4 L 49.7 29.6 L 52.6 29.2 L 55.6 29.1 L 58.7 29.6 L 61.7 30.4 L 64.7 31.8 L 67.5 33.6 L 70.1 35.8 L 72.4 38.4 L 74.3 41.4 L 75.9 44.7 L 76.9 48.3 L 77.5 52.1 L 77.6 56.0 L 77.0 59.9 L 75.9 63.8" fill="none" stroke="currentColor" stroke-width="2" stroke-linecap="round" stroke-linejoin="round" pathLength="1"/></g></g></svg>