<svg xmlns="http://www.w3.org/2000/svg" width="120" height="120" viewBox="0 0 100 100"><g fill="none" stroke="#e8b563" stroke-width="2.4" stroke-linecap="round" stroke-linejoin="round"><path d="M 50 20 L 55.4 22.5 L 59.9 25.0 L 62.9 27.5 L 64.0 30.0 L 62.9 32.5 L 59.9 35.0 L 55.4 37.5 L 50.0 40.0 L 44.6 42.5 L 40.1 45.0 L 37.1 47.5 L 36.0 50.0 L 37.1 52.5 L 40.1 55.0 L 44.6 57.5 L 50.0 60.0 L 55.4 62.5 L 59.9 65.0 L 62.9 67.5 L 64.0 70.0 L 62.9 72.5 L 59.9 75.0 L 55.4 77.5 L 50.0 80.0" fill="none" stroke="currentColor" stroke-width="2.6" stroke-linecap="round" stroke-linejoin="round" pathLength="1"/><line x1="54.12401097457171" y1="26.85511002695158" x2="50" y2="20" stroke="currentColor" stroke-width="2.4" stroke-linecap="round" pathLength="1"/><line x1="45.87598902542828" y1="26.855110026951575" x2="50" y2="20" stroke="currentColor" stroke-width="2.4" stroke-linecap="round" pathLength="1"/></g></svg>